<svg version="1.1" id="Layer_1" xmlns="http://www.w3.org/2000/svg" xmlns:xlink="http://www.w3.org/1999/xlink" x="0px" y="0px"
	 width="100%" viewBox="0 0 1280 425" enable-background="new 0 0 1280 425" xml:space="preserve">
<path fill="#FFFEFE" opacity="1.000000" stroke="none" 
	d="
M861.000000,426.000000 
	C574.000061,426.000000 287.500061,426.000000 1.000077,426.000000 
	C1.000051,284.333374 1.000051,142.666763 1.000026,1.000115 
	C427.666534,1.000077 854.333069,1.000077 1280.999756,1.000038 
	C1280.999756,142.666550 1280.999756,284.333099 1280.999878,425.999817 
	C1141.166626,426.000000 1001.333313,426.000000 861.000000,426.000000 
M402.575165,182.500122 
	C402.576508,177.001053 402.050964,171.435791 402.730988,166.021957 
	C403.379974,160.854752 404.389404,155.363251 406.813141,150.860962 
	C412.965149,139.433014 426.618286,134.221100 438.990692,137.626556 
	C451.611267,141.100357 460.185486,152.026230 460.235962,165.210022 
	C460.335449,191.205566 460.327362,217.202194 460.184357,243.197388 
	C460.158417,247.917938 461.840088,249.913284 466.610382,249.712616 
	C471.933533,249.488678 477.273254,249.661926 482.605743,249.656174 
	C490.466522,249.647675 490.900604,249.225845 490.900970,241.568848 
	C490.902252,215.906174 490.797852,190.242950 490.932770,164.580978 
	C491.039154,144.352539 513.006592,130.544922 531.302368,139.178802 
	C543.053101,144.724060 548.561340,154.429886 548.612061,167.224045 
	C548.712463,192.552841 548.756531,217.883026 548.569824,243.210754 
	C548.536133,247.783752 550.209900,249.654114 554.546997,249.644562 
	C560.712646,249.630981 566.878357,249.630478 573.043945,249.654739 
	C577.416809,249.671936 578.992249,247.657608 578.961121,243.196701 
	C578.778381,217.036407 579.111755,190.870819 578.762512,164.713806 
	C578.264465,127.400734 543.809143,100.189087 507.269623,107.841591 
	C494.787140,110.455818 484.387848,116.691132 475.521332,126.046486 
	C466.171814,116.557877 455.522400,109.713493 442.356964,107.529671 
	C428.046967,105.155991 413.678131,106.537712 400.529938,111.712227 
	C388.826630,116.318115 380.349457,115.187897 371.269653,106.609428 
	C363.239777,99.022903 352.855133,98.458794 342.263977,101.260323 
	C342.263977,111.020691 342.263977,120.330963 342.263977,129.718033 
	C342.971436,129.964020 343.571503,130.241165 344.202026,130.377579 
	C345.498596,130.658066 346.817108,130.835983 348.116760,131.103745 
	C359.145416,133.375809 367.117798,139.304459 369.717590,150.624008 
	C371.159241,156.900925 372.130676,163.425858 372.205353,169.851883 
	C372.490021,194.344681 372.427216,218.843521 372.234955,243.338074 
	C372.198364,247.996140 374.110168,249.650864 378.338104,249.645630 
	C384.170502,249.638412 390.004791,249.744278 395.834808,249.628845 
	C401.894653,249.508835 402.550934,248.758575 402.558075,242.490814 
	C402.580414,222.827286 402.571655,203.163712 402.575165,182.500122 
M183.168274,249.820938 
	C190.005951,249.631699 191.977585,248.098816 191.759018,242.369934 
	C191.163925,226.771194 187.643097,211.976486 178.263977,199.163605 
	C173.990784,193.325958 169.079147,187.955643 164.894562,182.901718 
	C169.364716,177.792023 174.283096,173.007553 178.222565,167.520294 
	C194.340820,145.069336 197.464340,120.558159 185.409241,95.801750 
	C172.887878,70.087837 151.435516,56.257713 122.265327,55.988922 
	C100.941788,55.792435 79.615089,55.931229 58.289810,55.943020 
	C56.534962,55.943989 54.780216,56.117390 52.541618,56.236385 
	C52.541618,58.547077 52.541584,60.350727 52.541626,62.154381 
	C52.542740,112.302147 52.543434,162.449921 52.545357,212.597687 
	C52.545734,222.427292 52.501350,232.257248 52.572327,242.086365 
	C52.615261,248.032333 54.387451,249.735443 60.396965,249.807480 
	C65.061165,249.863388 69.726646,249.819214 74.391533,249.808197 
	C82.278732,249.789581 83.523857,248.492767 83.523979,240.406860 
	C83.524727,191.258728 83.530647,142.110596 83.534813,92.962456 
	C83.534966,91.160667 83.534828,89.358879 83.534828,87.236572 
	C85.384972,87.133865 86.843224,86.984932 88.301689,86.982719 
	C99.797318,86.965302 111.293411,86.914574 122.788567,86.991127 
	C144.238403,87.133972 161.163803,104.095627 161.236435,125.432869 
	C161.309937,147.026505 144.874496,163.928284 123.332458,164.345276 
	C118.170242,164.445206 113.003311,164.285172 107.840195,164.359528 
	C102.487999,164.436600 100.965546,165.950897 100.864929,171.166672 
	C100.787827,175.164017 100.811935,179.163330 100.792801,183.161758 
	C100.736450,194.937286 100.736794,194.937317 112.431686,195.197281 
	C139.102402,195.790161 159.805984,216.057281 160.883820,242.627960 
	C161.099930,247.955643 162.817307,249.691925 168.249115,249.796417 
	C172.912277,249.886124 177.578445,249.819351 183.168274,249.820938 
M617.191101,237.334946 
	C642.334473,254.710297 668.854553,255.745651 696.353210,243.800522 
	C699.778198,242.312729 701.414368,242.721115 702.813232,246.283371 
	C703.381836,247.731308 705.553833,249.407944 707.066956,249.479141 
	C713.882568,249.799881 720.724121,249.626053 727.555176,249.540375 
	C731.150024,249.495300 732.847046,247.807755 732.839905,243.945679 
	C732.759583,200.613251 732.762756,157.280548 732.833008,113.948082 
	C732.839539,109.904480 731.188965,108.134193 727.212769,108.166565 
	C720.713501,108.219482 714.197937,107.912270 707.723755,108.313187 
	C705.955322,108.422707 703.501831,110.158318 702.778809,111.779320 
	C701.341064,115.002197 699.705017,115.959671 696.665588,114.224983 
	C684.116821,107.063110 670.341919,106.116447 656.427368,106.788452 
	C617.586548,108.664261 587.927246,139.863708 587.744507,178.686920 
	C587.630432,202.926254 597.905334,222.006989 617.191101,237.334946 
M843.965881,228.499817 
	C843.965027,233.831482 844.271484,239.186142 843.874939,244.488205 
	C843.497009,249.541611 845.643982,250.902130 850.276062,250.672974 
	C855.927368,250.393417 861.603149,250.604126 867.268311,250.611038 
	C874.243042,250.619537 874.257629,250.623215 874.260376,243.751755 
	C874.270447,218.591721 874.343506,193.431396 874.239319,168.271805 
	C874.193787,157.262085 878.229980,148.356155 887.467224,142.338699 
	C896.882141,136.205475 907.022522,135.765991 916.888000,141.072952 
	C926.747803,146.376877 932.017944,155.082687 932.107300,166.303314 
	C932.315674,192.461487 932.267029,218.622574 932.139954,244.781601 
	C932.119446,249.010956 933.295227,250.874802 937.795349,250.683899 
	C944.448364,250.401627 951.122986,250.538940 957.786499,250.630768 
	C960.854919,250.673065 962.428467,249.605499 962.413330,246.313095 
	C962.283508,218.156433 963.237854,189.949875 961.873474,161.855103 
	C960.155884,126.486832 926.336609,101.604637 891.605469,108.554199 
	C878.953552,111.085793 868.385620,117.342415 859.275452,126.719833 
	C857.978943,125.594368 856.864807,124.641624 855.766235,123.671280 
	C847.679565,116.528557 838.777588,110.839645 828.154419,108.246910 
	C824.788025,107.425293 822.045532,107.703590 821.981934,112.154823 
	C821.877258,119.484032 821.624512,126.816742 821.799438,134.139267 
	C821.831787,135.494797 823.293823,137.393387 824.596252,138.051453 
	C836.746887,144.190826 843.967957,153.424011 843.954407,167.515778 
	C843.935242,187.510483 843.959839,207.505219 843.965881,228.499817 
M305.108185,195.375748 
	C293.134369,219.169479 269.550476,227.211761 245.995621,215.443283 
	C242.523880,213.708740 239.653580,214.183258 236.843475,216.661713 
	C233.359756,219.734238 229.907883,222.857376 226.256989,225.722565 
	C220.419708,230.303574 220.430878,234.635452 226.478088,238.768082 
	C236.613327,245.694489 247.870193,249.622467 260.039612,250.486511 
	C288.189301,252.485168 310.810608,241.782028 326.360474,218.475021 
	C341.616699,195.608170 342.933167,170.596558 330.331268,146.321335 
	C316.572968,119.818634 293.768555,106.777542 263.562866,107.199142 
	C233.228729,107.622543 203.692673,131.044144 196.835846,160.344330 
	C195.461670,166.216309 197.720703,169.460144 203.681839,169.712067 
	C208.336914,169.908813 213.014709,169.566147 217.669952,169.760925 
	C222.840134,169.977219 225.952377,168.049408 227.794083,162.938461 
	C231.211151,153.455643 238.015015,146.589340 246.789062,141.914627 
	C262.667145,133.454941 281.103333,135.947617 294.613739,148.022614 
	C307.624115,159.650711 311.756866,177.565567 305.108185,195.375748 
M1224.957275,160.631790 
	C1211.595093,110.877823 1152.114258,90.604858 1111.317627,122.073662 
	C1098.439209,132.007538 1089.469238,144.856796 1085.681885,160.921829 
	C1084.450439,166.145630 1086.399170,168.926865 1091.755493,169.410568 
	C1096.051880,169.798553 1100.416016,169.425964 1104.714844,169.798569 
	C1111.027100,170.345703 1114.588257,168.055435 1117.183472,161.878281 
	C1125.408569,142.299484 1147.589233,132.565033 1167.812744,138.951782 
	C1188.126343,145.367035 1200.563721,165.922485 1196.695190,186.686050 
	C1191.620117,213.925323 1160.691650,229.134598 1136.282227,216.197128 
	C1131.714478,213.776184 1128.301147,213.975311 1124.685059,217.635300 
	C1122.122437,220.228882 1119.097900,222.365189 1116.284912,224.712189 
	C1108.762817,230.988510 1108.924316,234.932327 1117.156616,239.918640 
	C1137.757324,252.396591 1159.601562,254.436829 1181.862183,245.722351 
	C1210.357300,234.567215 1234.380249,203.828110 1224.957275,160.631790 
M1018.676086,202.722092 
	C1004.659729,183.808273 1009.766174,147.934937 1041.141479,139.915802 
	C1047.221191,138.361908 1053.525146,137.567047 1059.773682,136.826111 
	C1065.739990,136.118622 1067.843384,134.271805 1067.921509,128.386169 
	C1067.987671,123.391350 1068.057373,118.390152 1067.879761,113.400536 
	C1067.735596,109.353355 1065.694458,106.601295 1061.340454,106.915413 
	C1053.897705,107.452339 1046.333008,107.637451 1039.075195,109.176247 
	C1000.321899,117.392700 976.206726,150.643768 981.627869,188.539749 
	C987.811768,231.767899 1023.071350,250.880249 1061.113525,251.362000 
	C1065.571655,251.418457 1067.732544,248.557724 1067.892822,244.311569 
	C1068.056030,239.987885 1067.955078,235.653671 1067.944946,231.324112 
	C1067.925415,223.033005 1066.372192,221.665359 1058.169434,220.997925 
	C1043.083618,219.770401 1028.740601,216.651474 1018.676086,202.722092 
M769.071045,208.500000 
	C769.075317,220.666061 769.140930,232.832626 769.041199,244.997833 
	C769.016052,248.066727 769.921143,249.711777 773.241333,249.677170 
	C780.573486,249.600739 787.907227,249.619568 795.239807,249.669403 
	C798.226624,249.689697 799.284302,248.325348 799.280640,245.374481 
	C799.226013,201.210037 799.226074,157.045486 799.277283,112.881027 
	C799.281189,109.488617 797.987488,108.050591 794.543640,108.123245 
	C788.213562,108.256821 781.862976,108.426094 775.550415,108.064537 
	C770.586914,107.780251 768.924561,109.342865 768.961792,114.505165 
	C769.184998,145.502106 769.071655,176.501450 769.071045,208.500000 
M769.076660,76.736275 
	C769.083313,81.566345 769.104919,86.396454 769.091675,91.226471 
	C769.081238,95.040421 770.771423,97.219528 774.759399,97.223190 
	C781.088196,97.229012 787.417053,97.221756 793.745850,97.213631 
	C797.463501,97.208855 799.225891,95.277885 799.225647,91.621872 
	C799.225220,85.626015 799.221802,79.630142 799.230347,73.634293 
	C799.235901,69.704720 797.263977,67.847069 793.359497,67.867821 
	C787.863403,67.897041 782.367004,67.849770 776.870789,67.863373 
	C770.251526,67.879745 769.269409,68.894264 769.076660,76.736275 
M643.437744,285.060730 
	C639.233521,281.492188 634.991638,280.854645 631.828918,283.710205 
	C627.135315,287.947937 629.598328,292.382538 632.101013,296.539764 
	C625.216797,301.824158 623.591675,306.151550 626.598267,310.753235 
	C630.147827,316.186035 636.679260,316.129700 644.860657,310.927856 
	C647.549805,312.243011 649.946777,313.415253 652.343750,314.587463 
	C652.584961,314.178101 652.826233,313.768738 653.067444,313.359375 
	C651.092041,311.179871 649.116577,309.000366 647.124023,306.801971 
	C648.853455,303.723022 650.496704,300.797516 652.139893,297.872040 
	C651.597778,297.460602 651.055664,297.049164 650.513550,296.637726 
	C648.510925,299.010284 646.508362,301.382843 644.301575,303.997314 
	C642.400208,301.957794 640.420593,299.834320 638.245178,297.500793 
	C642.404358,294.310303 646.134766,291.299316 643.437744,285.060730 
M442.294739,291.413513 
	C436.615936,281.078125 426.945404,282.975616 417.533630,283.036652 
	C417.533630,293.467926 417.533630,303.530365 417.533630,313.558289 
	C437.048279,316.624847 447.355164,307.735992 442.294739,291.413513 
M548.517151,314.007965 
	C550.361145,313.421570 552.205200,312.835205 554.049194,312.248810 
	C554.497192,312.491119 554.945129,312.733398 555.393127,312.975708 
	C554.098877,315.519989 553.393921,319.374237 551.365479,320.286774 
	C548.648621,321.509064 544.899658,320.557159 541.608765,320.326904 
	C540.229858,320.230438 538.888977,319.590454 537.530884,319.197540 
	C537.408020,319.660919 537.285217,320.124268 537.162415,320.587646 
	C541.392944,324.647156 547.260498,325.894196 552.178650,323.611420 
	C556.970764,321.387207 557.896057,317.128021 557.850342,312.378601 
	C557.799194,307.065338 557.882629,301.750610 557.814514,296.437744 
	C557.799866,295.292572 557.388306,294.152527 557.281860,293.620850 
	C555.062439,293.745056 553.354736,294.372009 552.256775,293.809265 
	C547.742859,291.495392 543.487915,291.613098 539.789734,294.998169 
	C536.306274,298.186798 535.519165,302.464142 536.934570,306.908508 
	C538.557556,312.004639 542.378967,314.184052 548.517151,314.007965 
M693.185120,299.030579 
	C692.263367,299.766266 691.341614,300.501953 689.811707,301.723022 
	C689.811707,295.214996 689.890930,289.585815 689.742371,283.962646 
	C689.713928,282.886810 688.788147,281.834625 688.276367,280.771545 
	C687.869507,280.949341 687.462646,281.127167 687.055786,281.304962 
	C687.055786,292.148163 687.055786,302.991333 687.055786,313.926086 
	C688.583618,313.421783 688.583618,313.421783 690.561707,304.654358 
	C692.614990,306.634491 694.483154,308.686646 696.613159,310.416443 
	C698.559937,311.997467 700.789917,313.229675 702.895142,314.615601 
	C703.296387,314.084106 703.697632,313.552582 704.098877,313.021088 
	C700.648315,309.738953 697.197754,306.456818 693.041931,302.503845 
	C696.628967,299.357330 699.810486,296.566498 702.992004,293.775696 
	C702.563538,293.272858 702.135071,292.770050 701.706604,292.267212 
	C699.056519,294.348358 696.406433,296.429535 693.185120,299.030579 
M471.438141,311.327667 
	C464.757874,313.056152 461.616058,311.161469 461.108643,304.712891 
	C466.385864,304.712891 471.644470,304.712891 476.835388,304.712891 
	C477.585297,298.468933 475.435333,294.437073 470.764648,292.832397 
	C466.326782,291.307709 461.562500,293.028687 459.069855,297.056885 
	C456.166046,301.749542 456.901245,308.773590 460.662689,312.274567 
	C464.273651,315.635529 469.989410,316.115479 473.957092,313.126312 
	C474.864044,312.443024 475.122650,310.899139 475.679626,309.751373 
	C474.480072,310.128082 473.280487,310.504822 471.438141,311.327667 
M823.565186,296.165100 
	C822.756287,298.319489 821.453552,300.426544 821.241516,302.638153 
	C820.803894,307.203186 822.174988,311.283356 826.508362,313.665924 
	C830.536377,315.880646 834.573547,315.589874 838.214478,312.827484 
	C839.057373,312.187988 839.218811,310.650085 839.435730,310.136536 
	C835.314636,310.702026 831.932617,311.934540 828.943054,311.304504 
	C826.970703,310.888916 825.562805,307.794556 823.902222,305.899597 
	C824.248047,305.486328 824.593872,305.073090 824.939697,304.659821 
	C830.216003,304.659821 835.492310,304.659821 841.019714,304.659821 
	C841.630310,299.528564 840.183411,295.637848 835.887756,293.423309 
	C831.587036,291.206146 827.484802,292.050629 823.565186,296.165100 
M789.133423,308.337463 
	C789.462158,310.316284 789.790894,312.295135 790.119568,314.273956 
	C790.803040,314.176605 791.486511,314.079285 792.169983,313.981934 
	C792.169983,309.871155 791.836121,305.724945 792.267700,301.659973 
	C792.667114,297.897675 794.807922,294.895294 799.079651,295.152222 
	C803.197998,295.399963 803.827148,298.706726 803.885986,302.067291 
	C803.941223,305.227905 803.756775,308.400665 803.987000,311.545441 
	C804.057739,312.511749 805.146606,313.403473 805.769287,314.329376 
	C806.171631,314.092560 806.574036,313.855743 806.976379,313.618927 
	C806.976379,308.974976 807.225159,304.314362 806.914917,299.691254 
	C806.505432,293.589661 801.466370,290.707184 795.847656,293.091827 
	C794.697449,293.579987 793.637939,294.281982 791.908325,295.229706 
	C791.908325,290.130280 791.908325,285.604126 791.908325,280.715607 
	C790.757812,281.115723 789.662659,281.306000 789.656677,281.526154 
	C789.420471,290.139984 789.283508,298.756531 789.133423,308.337463 
M500.589111,292.699402 
	C499.441132,292.557098 498.271942,292.200806 497.149048,292.311890 
	C493.503479,292.672516 490.659271,294.262573 490.368622,298.298645 
	C490.091339,302.149231 492.645020,303.901794 495.983582,304.804657 
	C497.105316,305.108032 498.449341,305.092560 499.310211,305.734528 
	C500.477173,306.604736 501.277039,307.967316 502.234344,309.118683 
	C501.051331,310.099762 499.959198,311.715576 498.662292,311.901276 
	C497.040802,312.133453 495.255829,311.168915 493.531921,310.761078 
	C492.453522,310.505951 491.357635,310.324677 489.248932,309.909149 
	C492.850433,314.593872 496.120667,316.303589 499.793243,314.698761 
	C502.145905,313.670715 504.703339,311.170807 505.416656,308.802826 
	C506.399841,305.539215 503.655914,303.408752 500.511261,302.405304 
	C498.935547,301.902557 497.198914,301.723419 495.790314,300.939362 
	C494.808838,300.393097 493.465790,298.782806 493.691650,298.151215 
	C494.113312,296.972168 495.467499,295.518463 496.601807,295.356476 
	C498.019379,295.154022 499.585175,296.235504 501.127808,296.579895 
	C502.232788,296.826630 503.404816,296.773163 504.546936,296.853638 
	C504.637787,296.350739 504.728668,295.847809 504.819519,295.344879 
	C503.651276,294.524689 502.483063,293.704498 500.589111,292.699402 
M901.355347,295.517944 
	C900.371826,294.673798 899.516663,293.541077 898.382141,293.036499 
	C893.955444,291.067719 888.714966,292.967987 887.476624,296.818054 
	C886.198242,300.792419 888.293457,303.514191 893.793274,305.008820 
	C894.434448,305.183044 895.261780,305.112701 895.702881,305.498566 
	C896.942261,306.582703 898.024841,307.846039 899.169250,309.038696 
	C897.677246,310.078156 896.295288,311.654449 894.658936,311.989990 
	C893.310547,312.266479 891.686584,310.973816 890.134705,310.568329 
	C889.213928,310.327728 888.196167,310.458710 887.221985,310.422577 
	C887.526367,311.251312 887.713501,312.726227 888.153870,312.806183 
	C891.559448,313.424377 895.152832,314.508148 898.395142,313.896057 
	C900.027100,313.587921 901.989868,310.116882 902.145386,307.956757 
	C902.441833,303.839294 898.898987,302.671417 895.474121,301.967865 
	C895.148743,301.901031 894.761292,301.915497 894.511475,301.738556 
	C893.097900,300.737213 891.595825,299.802399 890.434326,298.555817 
	C890.216919,298.322418 891.293396,296.083130 891.970337,295.971863 
	C893.760254,295.677673 895.657715,296.064911 897.514038,296.138306 
	C898.783264,296.188477 900.055359,296.167084 901.355347,295.517944 
M572.917480,300.259460 
	C573.515808,304.840240 571.594177,309.911194 575.121155,313.980194 
	C576.063843,309.903778 575.847046,305.941589 576.125610,302.014526 
	C576.397034,298.188568 578.290405,295.127258 582.532288,295.151093 
	C586.954163,295.175934 587.650635,298.683258 587.748474,302.186523 
	C587.857300,306.083801 587.773315,309.986481 587.773315,313.886810 
	C588.628418,314.529327 589.483521,315.171844 590.338623,315.814362 
	C590.491882,314.700928 590.786621,313.585846 590.773804,312.474335 
	C590.718750,307.671417 590.941406,302.823944 590.353394,298.080627 
	C589.812195,293.715729 585.815063,291.544678 581.421753,292.517853 
	C578.742798,293.111328 576.073669,293.749237 572.919434,294.478302 
	C572.919434,295.505829 572.919434,297.481628 572.917480,300.259460 
M864.620667,295.068512 
	C868.468689,295.245361 869.687256,297.821320 869.839050,301.090179 
	C870.000549,304.568542 869.758118,308.068024 869.982239,311.539551 
	C870.044739,312.507721 871.134277,313.409576 871.752686,314.341858 
	C872.160889,314.110229 872.569092,313.878601 872.977295,313.646942 
	C872.977295,309.015076 873.208069,304.368744 872.919373,299.754913 
	C872.549683,293.846588 867.879333,291.000854 862.392883,292.834442 
	C860.301697,293.533325 858.054138,293.764618 855.140137,294.359619 
	C855.140137,299.621613 855.074951,305.862122 855.224609,312.097504 
	C855.242798,312.856384 856.416809,313.587555 857.055115,314.331573 
	C858.075073,310.315582 858.022095,306.859985 858.088989,303.406738 
	C858.166321,299.412537 859.640808,296.316010 864.620667,295.068512 
M768.403259,292.251343 
	C759.674072,293.657623 754.994385,300.831360 758.707581,308.357361 
	C760.101318,311.182129 763.661133,313.542328 766.764465,314.753235 
	C770.007874,316.018829 773.422668,314.581573 775.303955,310.811523 
	C774.014404,310.568878 772.834045,310.735962 771.802490,311.220062 
	C768.385376,312.823761 765.321960,312.599731 762.853577,309.562866 
	C760.226990,306.331390 760.326843,300.533386 763.120728,297.511658 
	C765.707092,294.714447 768.679626,294.233307 772.067505,296.347839 
	C772.954346,296.901367 774.299500,296.720703 775.434143,296.877197 
	C775.559692,296.253967 775.685181,295.630737 775.810669,295.007507 
	C773.599243,294.109161 771.387756,293.210846 768.403259,292.251343 
M742.458374,296.037781 
	C743.949768,295.906555 745.441101,295.775330 746.932495,295.644073 
	C746.978760,295.102203 747.025085,294.560303 747.071411,294.018433 
	C745.110352,293.530762 743.149292,293.043091 741.189941,292.548615 
	C741.026855,290.957886 740.863831,289.367188 740.700745,287.776459 
	C740.164429,287.629913 739.628113,287.483398 739.091797,287.336853 
	C738.506897,289.090912 737.921936,290.845001 737.355225,292.544373 
	C736.132812,293.137360 734.788635,293.789398 733.444458,294.441437 
	C733.547363,294.815125 733.650208,295.188843 733.753113,295.562531 
	C735.088379,295.850403 736.423645,296.138306 737.970215,296.471741 
	C737.970215,301.103912 737.580750,305.641357 738.160583,310.051392 
	C738.394775,311.832550 740.471497,313.877991 742.233276,314.774719 
	C743.419495,315.378479 745.523071,314.179962 746.790771,313.886292 
	C744.392822,311.837219 741.480286,310.559601 741.268494,308.930817 
	C740.723877,304.742737 741.376526,300.398987 742.458374,296.037781 
M721.020081,299.641846 
	C720.914734,297.470673 720.809387,295.299530 720.683411,292.703339 
	C718.069824,294.679382 716.818420,305.736633 718.030518,312.113770 
	C718.192932,312.968201 719.261047,313.650482 719.909790,314.412476 
	C720.279846,314.239594 720.649963,314.066742 721.020020,313.893860 
	C721.020020,309.464172 721.020020,305.034485 721.020081,299.641846 
M519.067078,306.426392 
	C519.816467,308.959290 517.403015,312.497375 521.686279,314.654938 
	C521.686279,307.047272 521.686279,300.121704 521.686279,293.196106 
	C517.518677,296.726685 519.773071,301.362701 519.067078,306.426392 
z"/>
<path fill="#E80C2C" opacity="1.000000" stroke="none" 
	d="
M402.575043,183.000137 
	C402.571655,203.163712 402.580414,222.827286 402.558075,242.490814 
	C402.550934,248.758575 401.894653,249.508835 395.834808,249.628845 
	C390.004791,249.744278 384.170502,249.638412 378.338104,249.645630 
	C374.110168,249.650864 372.198364,247.996140 372.234955,243.338074 
	C372.427216,218.843521 372.490021,194.344681 372.205353,169.851883 
	C372.130676,163.425858 371.159241,156.900925 369.717590,150.624008 
	C367.117798,139.304459 359.145416,133.375809 348.116760,131.103745 
	C346.817108,130.835983 345.498596,130.658066 344.202026,130.377579 
	C343.571503,130.241165 342.971436,129.964020 342.263977,129.718033 
	C342.263977,120.330963 342.263977,111.020691 342.263977,101.260323 
	C352.855133,98.458794 363.239777,99.022903 371.269653,106.609428 
	C380.349457,115.187897 388.826630,116.318115 400.529938,111.712227 
	C413.678131,106.537712 428.046967,105.155991 442.356964,107.529671 
	C455.522400,109.713493 466.171814,116.557877 475.521332,126.046486 
	C484.387848,116.691132 494.787140,110.455818 507.269623,107.841591 
	C543.809143,100.189087 578.264465,127.400734 578.762512,164.713806 
	C579.111755,190.870819 578.778381,217.036407 578.961121,243.196701 
	C578.992249,247.657608 577.416809,249.671936 573.043945,249.654739 
	C566.878357,249.630478 560.712646,249.630981 554.546997,249.644562 
	C550.209900,249.654114 548.536133,247.783752 548.569824,243.210754 
	C548.756531,217.883026 548.712463,192.552841 548.612061,167.224045 
	C548.561340,154.429886 543.053101,144.724060 531.302368,139.178802 
	C513.006592,130.544922 491.039154,144.352539 490.932770,164.580978 
	C490.797852,190.242950 490.902252,215.906174 490.900970,241.568848 
	C490.900604,249.225845 490.466522,249.647675 482.605743,249.656174 
	C477.273254,249.661926 471.933533,249.488678 466.610382,249.712616 
	C461.840088,249.913284 460.158417,247.917938 460.184357,243.197388 
	C460.327362,217.202194 460.335449,191.205566 460.235962,165.210022 
	C460.185486,152.026230 451.611267,141.100357 438.990692,137.626556 
	C426.618286,134.221100 412.965149,139.433014 406.813141,150.860962 
	C404.389404,155.363251 403.379974,160.854752 402.730988,166.021957 
	C402.050964,171.435791 402.576508,177.001053 402.575043,183.000137 
z"/>
<path fill="#E80A2A" opacity="1.000000" stroke="none" 
	d="
M182.705780,249.821350 
	C177.578445,249.819351 172.912277,249.886124 168.249115,249.796417 
	C162.817307,249.691925 161.099930,247.955643 160.883820,242.627960 
	C159.805984,216.057281 139.102402,195.790161 112.431686,195.197281 
	C100.736794,194.937317 100.736450,194.937286 100.792801,183.161758 
	C100.811935,179.163330 100.787827,175.164017 100.864929,171.166672 
	C100.965546,165.950897 102.487999,164.436600 107.840195,164.359528 
	C113.003311,164.285172 118.170242,164.445206 123.332458,164.345276 
	C144.874496,163.928284 161.309937,147.026505 161.236435,125.432869 
	C161.163803,104.095627 144.238403,87.133972 122.788567,86.991127 
	C111.293411,86.914574 99.797318,86.965302 88.301689,86.982719 
	C86.843224,86.984932 85.384972,87.133865 83.534828,87.236572 
	C83.534828,89.358879 83.534966,91.160667 83.534813,92.962456 
	C83.530647,142.110596 83.524727,191.258728 83.523979,240.406860 
	C83.523857,248.492767 82.278732,249.789581 74.391533,249.808197 
	C69.726646,249.819214 65.061165,249.863388 60.396965,249.807480 
	C54.387451,249.735443 52.615261,248.032333 52.572327,242.086365 
	C52.501350,232.257248 52.545734,222.427292 52.545357,212.597687 
	C52.543434,162.449921 52.542740,112.302147 52.541626,62.154381 
	C52.541584,60.350727 52.541618,58.547077 52.541618,56.236385 
	C54.780216,56.117390 56.534962,55.943989 58.289810,55.943020 
	C79.615089,55.931229 100.941788,55.792435 122.265327,55.988922 
	C151.435516,56.257713 172.887878,70.087837 185.409241,95.801750 
	C197.464340,120.558159 194.340820,145.069336 178.222565,167.520294 
	C174.283096,173.007553 169.364716,177.792023 164.894562,182.901718 
	C169.079147,187.955643 173.990784,193.325958 178.263977,199.163605 
	C187.643097,211.976486 191.163925,226.771194 191.759018,242.369934 
	C191.977585,248.098816 190.005951,249.631699 182.705780,249.821350 
z"/>
<path fill="#E90B2B" opacity="1.000000" stroke="none" 
	d="
M616.909058,237.116821 
	C597.905334,222.006989 587.630432,202.926254 587.744507,178.686920 
	C587.927246,139.863708 617.586548,108.664261 656.427368,106.788452 
	C670.341919,106.116447 684.116821,107.063110 696.665588,114.224983 
	C699.705017,115.959671 701.341064,115.002197 702.778809,111.779320 
	C703.501831,110.158318 705.955322,108.422707 707.723755,108.313187 
	C714.197937,107.912270 720.713501,108.219482 727.212769,108.166565 
	C731.188965,108.134193 732.839539,109.904480 732.833008,113.948082 
	C732.762756,157.280548 732.759583,200.613251 732.839905,243.945679 
	C732.847046,247.807755 731.150024,249.495300 727.555176,249.540375 
	C720.724121,249.626053 713.882568,249.799881 707.066956,249.479141 
	C705.553833,249.407944 703.381836,247.731308 702.813232,246.283371 
	C701.414368,242.721115 699.778198,242.312729 696.353210,243.800522 
	C668.854553,255.745651 642.334473,254.710297 616.909058,237.116821 
M661.426880,221.076019 
	C679.160339,220.392212 691.895874,211.703690 698.943054,195.772949 
	C706.036438,179.737701 703.490906,164.371826 691.884949,151.123260 
	C680.534180,138.165939 665.904358,134.005661 649.371277,138.095764 
	C628.572083,143.241272 615.487122,163.365173 618.268921,184.839584 
	C620.982178,205.783966 638.371948,220.709549 661.426880,221.076019 
z"/>
<path fill="#E80C2C" opacity="1.000000" stroke="none" 
	d="
M843.965820,227.999878 
	C843.959839,207.505219 843.935242,187.510483 843.954407,167.515778 
	C843.967957,153.424011 836.746887,144.190826 824.596252,138.051453 
	C823.293823,137.393387 821.831787,135.494797 821.799438,134.139267 
	C821.624512,126.816742 821.877258,119.484032 821.981934,112.154823 
	C822.045532,107.703590 824.788025,107.425293 828.154419,108.246910 
	C838.777588,110.839645 847.679565,116.528557 855.766235,123.671280 
	C856.864807,124.641624 857.978943,125.594368 859.275452,126.719833 
	C868.385620,117.342415 878.953552,111.085793 891.605469,108.554199 
	C926.336609,101.604637 960.155884,126.486832 961.873474,161.855103 
	C963.237854,189.949875 962.283508,218.156433 962.413330,246.313095 
	C962.428467,249.605499 960.854919,250.673065 957.786499,250.630768 
	C951.122986,250.538940 944.448364,250.401627 937.795349,250.683899 
	C933.295227,250.874802 932.119446,249.010956 932.139954,244.781601 
	C932.267029,218.622574 932.315674,192.461487 932.107300,166.303314 
	C932.017944,155.082687 926.747803,146.376877 916.888000,141.072952 
	C907.022522,135.765991 896.882141,136.205475 887.467224,142.338699 
	C878.229980,148.356155 874.193787,157.262085 874.239319,168.271805 
	C874.343506,193.431396 874.270447,218.591721 874.260376,243.751755 
	C874.257629,250.623215 874.243042,250.619537 867.268311,250.611038 
	C861.603149,250.604126 855.927368,250.393417 850.276062,250.672974 
	C845.643982,250.902130 843.497009,249.541611 843.874939,244.488205 
	C844.271484,239.186142 843.965027,233.831482 843.965820,227.999878 
z"/>
<path fill="#E80C2C" opacity="1.000000" stroke="none" 
	d="
M305.238403,195.009766 
	C311.756866,177.565567 307.624115,159.650711 294.613739,148.022614 
	C281.103333,135.947617 262.667145,133.454941 246.789062,141.914627 
	C238.015015,146.589340 231.211151,153.455643 227.794083,162.938461 
	C225.952377,168.049408 222.840134,169.977219 217.669952,169.760925 
	C213.014709,169.566147 208.336914,169.908813 203.681839,169.712067 
	C197.720703,169.460144 195.461670,166.216309 196.835846,160.344330 
	C203.692673,131.044144 233.228729,107.622543 263.562866,107.199142 
	C293.768555,106.777542 316.572968,119.818634 330.331268,146.321335 
	C342.933167,170.596558 341.616699,195.608170 326.360474,218.475021 
	C310.810608,241.782028 288.189301,252.485168 260.039612,250.486511 
	C247.870193,249.622467 236.613327,245.694489 226.478088,238.768082 
	C220.430878,234.635452 220.419708,230.303574 226.256989,225.722565 
	C229.907883,222.857376 233.359756,219.734238 236.843475,216.661713 
	C239.653580,214.183258 242.523880,213.708740 245.995621,215.443283 
	C269.550476,227.211761 293.134369,219.169479 305.238403,195.009766 
z"/>
<path fill="#E80C2C" opacity="1.000000" stroke="none" 
	d="
M1225.038208,161.042343 
	C1234.380249,203.828110 1210.357300,234.567215 1181.862183,245.722351 
	C1159.601562,254.436829 1137.757324,252.396591 1117.156616,239.918640 
	C1108.924316,234.932327 1108.762817,230.988510 1116.284912,224.712189 
	C1119.097900,222.365189 1122.122437,220.228882 1124.685059,217.635300 
	C1128.301147,213.975311 1131.714478,213.776184 1136.282227,216.197128 
	C1160.691650,229.134598 1191.620117,213.925323 1196.695190,186.686050 
	C1200.563721,165.922485 1188.126343,145.367035 1167.812744,138.951782 
	C1147.589233,132.565033 1125.408569,142.299484 1117.183472,161.878281 
	C1114.588257,168.055435 1111.027100,170.345703 1104.714844,169.798569 
	C1100.416016,169.425964 1096.051880,169.798553 1091.755493,169.410568 
	C1086.399170,168.926865 1084.450439,166.145630 1085.681885,160.921829 
	C1089.469238,144.856796 1098.439209,132.007538 1111.317627,122.073662 
	C1152.114258,90.604858 1211.595093,110.877823 1225.038208,161.042343 
z"/>
<path fill="#E80C2C" opacity="1.000000" stroke="none" 
	d="
M1018.873657,203.024902 
	C1028.740601,216.651474 1043.083618,219.770401 1058.169434,220.997925 
	C1066.372192,221.665359 1067.925415,223.033005 1067.944946,231.324112 
	C1067.955078,235.653671 1068.056030,239.987885 1067.892822,244.311569 
	C1067.732544,248.557724 1065.571655,251.418457 1061.113525,251.362000 
	C1023.071350,250.880249 987.811768,231.767899 981.627869,188.539749 
	C976.206726,150.643768 1000.321899,117.392700 1039.075195,109.176247 
	C1046.333008,107.637451 1053.897705,107.452339 1061.340454,106.915413 
	C1065.694458,106.601295 1067.735596,109.353355 1067.879761,113.400536 
	C1068.057373,118.390152 1067.987671,123.391350 1067.921509,128.386169 
	C1067.843384,134.271805 1065.739990,136.118622 1059.773682,136.826111 
	C1053.525146,137.567047 1047.221191,138.361908 1041.141479,139.915802 
	C1009.766174,147.934937 1004.659729,183.808273 1018.873657,203.024902 
z"/>
<path fill="#E80C2C" opacity="1.000000" stroke="none" 
	d="
M769.071045,208.000000 
	C769.071655,176.501450 769.184998,145.502106 768.961792,114.505165 
	C768.924561,109.342865 770.586914,107.780251 775.550415,108.064537 
	C781.862976,108.426094 788.213562,108.256821 794.543640,108.123245 
	C797.987488,108.050591 799.281189,109.488617 799.277283,112.881027 
	C799.226074,157.045486 799.226013,201.210037 799.280640,245.374481 
	C799.284302,248.325348 798.226624,249.689697 795.239807,249.669403 
	C787.907227,249.619568 780.573486,249.600739 773.241333,249.677170 
	C769.921143,249.711777 769.016052,248.066727 769.041199,244.997833 
	C769.140930,232.832626 769.075317,220.666061 769.071045,208.000000 
z"/>
<path fill="#E60D2C" opacity="1.000000" stroke="none" 
	d="
M769.077515,76.271744 
	C769.269409,68.894264 770.251526,67.879745 776.870789,67.863373 
	C782.367004,67.849770 787.863403,67.897041 793.359497,67.867821 
	C797.263977,67.847069 799.235901,69.704720 799.230347,73.634293 
	C799.221802,79.630142 799.225220,85.626015 799.225647,91.621872 
	C799.225891,95.277885 797.463501,97.208855 793.745850,97.213631 
	C787.417053,97.221756 781.088196,97.229012 774.759399,97.223190 
	C770.771423,97.219528 769.081238,95.040421 769.091675,91.226471 
	C769.104919,86.396454 769.083313,81.566345 769.077515,76.271744 
z"/>
<path fill="#1F1F1F" opacity="1.000000" stroke="none" 
	d="
M643.642212,285.375732 
	C646.134766,291.299316 642.404358,294.310303 638.245178,297.500793 
	C640.420593,299.834320 642.400208,301.957794 644.301575,303.997314 
	C646.508362,301.382843 648.510925,299.010284 650.513550,296.637726 
	C651.055664,297.049164 651.597778,297.460602 652.139893,297.872040 
	C650.496704,300.797516 648.853455,303.723022 647.124023,306.801971 
	C649.116577,309.000366 651.092041,311.179871 653.067444,313.359375 
	C652.826233,313.768738 652.584961,314.178101 652.343750,314.587463 
	C649.946777,313.415253 647.549805,312.243011 644.860657,310.927856 
	C636.679260,316.129700 630.147827,316.186035 626.598267,310.753235 
	C623.591675,306.151550 625.216797,301.824158 632.101013,296.539764 
	C629.598328,292.382538 627.135315,287.947937 631.828918,283.710205 
	C634.991638,280.854645 639.233521,281.492188 643.642212,285.375732 
M642.304565,306.853363 
	C639.820251,304.220581 637.335938,301.587799 633.725281,297.761353 
	C631.881042,301.146393 629.867676,303.661896 629.255920,306.481445 
	C628.966492,307.815582 631.182190,310.921570 632.574219,311.128204 
	C635.210999,311.519684 638.108521,310.536224 640.816895,309.818665 
	C641.576904,309.617310 642.054626,308.350739 642.304565,306.853363 
M632.549500,287.951385 
	C633.237976,290.305084 633.926453,292.658783 634.614929,295.012482 
	C635.250977,295.162048 635.887085,295.311646 636.523132,295.461243 
	C638.139709,293.238983 639.989685,291.133942 641.206421,288.710907 
	C641.505188,288.115936 639.698242,285.489929 638.925903,285.519775 
	C636.895081,285.598267 634.900879,286.624725 632.549500,287.951385 
z"/>
<path fill="#212121" opacity="1.000000" stroke="none" 
	d="
M442.491760,291.750793 
	C447.355164,307.735992 437.048279,316.624847 417.533630,313.558289 
	C417.533630,303.530365 417.533630,293.467926 417.533630,283.036652 
	C426.945404,282.975616 436.615936,281.078125 442.491760,291.750793 
M421.467468,285.951843 
	C420.986359,294.209656 420.505249,302.467468 420.008972,310.985168 
	C423.901184,310.985168 426.717285,311.262451 429.459442,310.929840 
	C436.005341,310.135895 440.151459,305.282196 440.238373,298.718140 
	C440.328827,291.887726 436.172180,286.932678 429.401123,286.051636 
	C427.111084,285.753601 424.762817,285.903046 421.467468,285.951843 
z"/>
<path fill="#232323" opacity="1.000000" stroke="none" 
	d="
M548.064941,314.049255 
	C542.378967,314.184052 538.557556,312.004639 536.934570,306.908508 
	C535.519165,302.464142 536.306274,298.186798 539.789734,294.998169 
	C543.487915,291.613098 547.742859,291.495392 552.256775,293.809265 
	C553.354736,294.372009 555.062439,293.745056 557.281860,293.620850 
	C557.388306,294.152527 557.799866,295.292572 557.814514,296.437744 
	C557.882629,301.750610 557.799194,307.065338 557.850342,312.378601 
	C557.896057,317.128021 556.970764,321.387207 552.178650,323.611420 
	C547.260498,325.894196 541.392944,324.647156 537.162415,320.587646 
	C537.285217,320.124268 537.408020,319.660919 537.530884,319.197540 
	C538.888977,319.590454 540.229858,320.230438 541.608765,320.326904 
	C544.899658,320.557159 548.648621,321.509064 551.365479,320.286774 
	C553.393921,319.374237 554.098877,315.519989 555.393127,312.975708 
	C554.945129,312.733398 554.497192,312.491119 554.049194,312.248810 
	C552.205200,312.835205 550.361145,313.421570 548.064941,314.049255 
M540.816040,298.743439 
	C538.685120,304.021942 539.593689,308.392334 543.458984,310.375946 
	C547.146851,312.268463 550.567688,311.679230 553.186096,308.363770 
	C555.759766,305.104889 555.204041,299.812958 552.189819,297.058197 
	C548.985291,294.129456 545.597839,294.439606 540.816040,298.743439 
z"/>
<path fill="#1C1C1C" opacity="1.000000" stroke="none" 
	d="
M693.470703,298.770630 
	C696.406433,296.429535 699.056519,294.348358 701.706604,292.267212 
	C702.135071,292.770050 702.563538,293.272858 702.992004,293.775696 
	C699.810486,296.566498 696.628967,299.357330 693.041931,302.503845 
	C697.197754,306.456818 700.648315,309.738953 704.098877,313.021088 
	C703.697632,313.552582 703.296387,314.084106 702.895142,314.615601 
	C700.789917,313.229675 698.559937,311.997467 696.613159,310.416443 
	C694.483154,308.686646 692.614990,306.634491 690.561707,304.654358 
	C688.583618,313.421783 688.583618,313.421783 687.055786,313.926086 
	C687.055786,302.991333 687.055786,292.148163 687.055786,281.304962 
	C687.462646,281.127167 687.869507,280.949341 688.276367,280.771545 
	C688.788147,281.834625 689.713928,282.886810 689.742371,283.962646 
	C689.890930,289.585815 689.811707,295.214996 689.811707,301.723022 
	C691.341614,300.501953 692.263367,299.766266 693.470703,298.770630 
z"/>
<path fill="#282828" opacity="1.000000" stroke="none" 
	d="
M471.759521,311.104614 
	C473.280487,310.504822 474.480072,310.128082 475.679626,309.751343 
	C475.122650,310.899139 474.864044,312.443024 473.957092,313.126312 
	C469.989410,316.115479 464.273651,315.635529 460.662689,312.274567 
	C456.901245,308.773590 456.166046,301.749542 459.069855,297.056885 
	C461.562500,293.028687 466.326782,291.307709 470.764648,292.832397 
	C475.435333,294.437073 477.585297,298.468933 476.835388,304.712891 
	C471.644470,304.712891 466.385864,304.712891 461.108643,304.712891 
	C461.616058,311.161469 464.757874,313.056152 471.759521,311.104614 
M471.889557,296.649628 
	C465.935699,293.714172 461.948120,295.596924 461.005249,301.916443 
	C465.268036,301.916443 469.510071,301.916443 474.432922,301.916443 
	C473.670441,300.095734 473.065247,298.650665 471.889557,296.649628 
z"/>
<path fill="#232323" opacity="1.000000" stroke="none" 
	d="
M823.810303,295.877869 
	C827.484802,292.050629 831.587036,291.206146 835.887756,293.423309 
	C840.183411,295.637848 841.630310,299.528564 841.019714,304.659821 
	C835.492310,304.659821 830.216003,304.659821 824.939697,304.659821 
	C824.593872,305.073090 824.248047,305.486328 823.902222,305.899597 
	C825.562805,307.794556 826.970703,310.888916 828.943054,311.304504 
	C831.932617,311.934540 835.314636,310.702026 839.435730,310.136536 
	C839.218811,310.650085 839.057373,312.187988 838.214478,312.827484 
	C834.573547,315.589874 830.536377,315.880646 826.508362,313.665924 
	C822.174988,311.283356 820.803894,307.203186 821.241516,302.638153 
	C821.453552,300.426544 822.756287,298.319489 823.810303,295.877869 
M837.532898,299.355042 
	C835.197449,297.941528 832.866272,295.395233 830.525452,295.386292 
	C827.211731,295.373657 824.793579,298.022125 824.353760,302.098724 
	C828.249634,302.098724 831.867615,302.213776 835.467590,302.010010 
	C836.271240,301.964508 837.011597,300.799194 837.532898,299.355042 
z"/>
<path fill="#1F1F1F" opacity="1.000000" stroke="none" 
	d="
M789.133484,307.855103 
	C789.283508,298.756531 789.420471,290.139984 789.656677,281.526154 
	C789.662659,281.306000 790.757812,281.115723 791.908325,280.715607 
	C791.908325,285.604126 791.908325,290.130280 791.908325,295.229706 
	C793.637939,294.281982 794.697449,293.579987 795.847656,293.091827 
	C801.466370,290.707184 806.505432,293.589661 806.914917,299.691254 
	C807.225159,304.314362 806.976379,308.974976 806.976379,313.618927 
	C806.574036,313.855743 806.171631,314.092560 805.769287,314.329376 
	C805.146606,313.403473 804.057739,312.511749 803.987000,311.545441 
	C803.756775,308.400665 803.941223,305.227905 803.885986,302.067291 
	C803.827148,298.706726 803.197998,295.399963 799.079651,295.152222 
	C794.807922,294.895294 792.667114,297.897675 792.267700,301.659973 
	C791.836121,305.724945 792.169983,309.871155 792.169983,313.981934 
	C791.486511,314.079285 790.803040,314.176605 790.119568,314.273956 
	C789.790894,312.295135 789.462158,310.316284 789.133484,307.855103 
z"/>
<path fill="#242424" opacity="1.000000" stroke="none" 
	d="
M500.951965,292.791840 
	C502.483063,293.704498 503.651276,294.524689 504.819519,295.344879 
	C504.728668,295.847809 504.637787,296.350739 504.546936,296.853638 
	C503.404816,296.773163 502.232788,296.826630 501.127808,296.579895 
	C499.585175,296.235504 498.019379,295.154022 496.601807,295.356476 
	C495.467499,295.518463 494.113312,296.972168 493.691650,298.151215 
	C493.465790,298.782806 494.808838,300.393097 495.790314,300.939362 
	C497.198914,301.723419 498.935547,301.902557 500.511261,302.405304 
	C503.655914,303.408752 506.399841,305.539215 505.416656,308.802826 
	C504.703339,311.170807 502.145905,313.670715 499.793243,314.698761 
	C496.120667,316.303589 492.850433,314.593872 489.248932,309.909149 
	C491.357635,310.324677 492.453522,310.505951 493.531921,310.761078 
	C495.255829,311.168915 497.040802,312.133453 498.662292,311.901276 
	C499.959198,311.715576 501.051331,310.099762 502.234344,309.118683 
	C501.277039,307.967316 500.477173,306.604736 499.310211,305.734528 
	C498.449341,305.092560 497.105316,305.108032 495.983582,304.804657 
	C492.645020,303.901794 490.091339,302.149231 490.368622,298.298645 
	C490.659271,294.262573 493.503479,292.672516 497.149048,292.311890 
	C498.271942,292.200806 499.441132,292.557098 500.951965,292.791840 
z"/>
<path fill="#202020" opacity="1.000000" stroke="none" 
	d="
M901.340759,295.847809 
	C900.055359,296.167084 898.783264,296.188477 897.514038,296.138306 
	C895.657715,296.064911 893.760254,295.677673 891.970337,295.971863 
	C891.293396,296.083130 890.216919,298.322418 890.434326,298.555817 
	C891.595825,299.802399 893.097900,300.737213 894.511475,301.738556 
	C894.761292,301.915497 895.148743,301.901031 895.474121,301.967865 
	C898.898987,302.671417 902.441833,303.839294 902.145386,307.956757 
	C901.989868,310.116882 900.027100,313.587921 898.395142,313.896057 
	C895.152832,314.508148 891.559448,313.424377 888.153870,312.806183 
	C887.713501,312.726227 887.526367,311.251312 887.221985,310.422607 
	C888.196167,310.458710 889.213928,310.327728 890.134705,310.568329 
	C891.686584,310.973816 893.310547,312.266479 894.658936,311.989990 
	C896.295288,311.654449 897.677246,310.078156 899.169250,309.038696 
	C898.024841,307.846039 896.942261,306.582703 895.702881,305.498566 
	C895.261780,305.112701 894.434448,305.183044 893.793274,305.008820 
	C888.293457,303.514191 886.198242,300.792419 887.476624,296.818054 
	C888.714966,292.967987 893.955444,291.067719 898.382141,293.036499 
	C899.516663,293.541077 900.371826,294.673798 901.340759,295.847809 
z"/>
<path fill="#1D1D1D" opacity="1.000000" stroke="none" 
	d="
M572.918457,299.858459 
	C572.919434,297.481628 572.919434,295.505829 572.919434,294.478302 
	C576.073669,293.749237 578.742798,293.111328 581.421753,292.517853 
	C585.815063,291.544678 589.812195,293.715729 590.353394,298.080627 
	C590.941406,302.823944 590.718750,307.671417 590.773804,312.474335 
	C590.786621,313.585846 590.491882,314.700928 590.338623,315.814362 
	C589.483521,315.171844 588.628418,314.529327 587.773315,313.886810 
	C587.773315,309.986481 587.857300,306.083801 587.748474,302.186523 
	C587.650635,298.683258 586.954163,295.175934 582.532288,295.151093 
	C578.290405,295.127258 576.397034,298.188568 576.125610,302.014526 
	C575.847046,305.941589 576.063843,309.903778 575.121155,313.980194 
	C571.594177,309.911194 573.515808,304.840240 572.918457,299.858459 
z"/>
<path fill="#1F1F1F" opacity="1.000000" stroke="none" 
	d="
M864.219299,295.096436 
	C859.640808,296.316010 858.166321,299.412537 858.088989,303.406738 
	C858.022095,306.859985 858.075073,310.315582 857.055115,314.331573 
	C856.416809,313.587555 855.242798,312.856384 855.224609,312.097504 
	C855.074951,305.862122 855.140137,299.621613 855.140137,294.359619 
	C858.054138,293.764618 860.301697,293.533325 862.392883,292.834442 
	C867.879333,291.000854 872.549683,293.846588 872.919373,299.754913 
	C873.208069,304.368744 872.977295,309.015076 872.977295,313.646942 
	C872.569092,313.878601 872.160889,314.110229 871.752686,314.341858 
	C871.134277,313.409576 870.044739,312.507721 869.982239,311.539551 
	C869.758118,308.068024 870.000549,304.568542 869.839050,301.090179 
	C869.687256,297.821320 868.468689,295.245361 864.219299,295.096436 
z"/>
<path fill="#222222" opacity="1.000000" stroke="none" 
	d="
M768.789795,292.281921 
	C771.387756,293.210846 773.599243,294.109161 775.810669,295.007507 
	C775.685181,295.630737 775.559692,296.253967 775.434143,296.877197 
	C774.299500,296.720703 772.954346,296.901367 772.067505,296.347839 
	C768.679626,294.233307 765.707092,294.714447 763.120728,297.511658 
	C760.326843,300.533386 760.226990,306.331390 762.853577,309.562866 
	C765.321960,312.599731 768.385376,312.823761 771.802490,311.220062 
	C772.834045,310.735962 774.014404,310.568878 775.303955,310.811523 
	C773.422668,314.581573 770.007874,316.018829 766.764465,314.753235 
	C763.661133,313.542328 760.101318,311.182129 758.707581,308.357361 
	C754.994385,300.831360 759.674072,293.657623 768.789795,292.281921 
z"/>
<path fill="#191919" opacity="1.000000" stroke="none" 
	d="
M742.004517,296.077606 
	C741.376526,300.398987 740.723877,304.742737 741.268494,308.930817 
	C741.480286,310.559601 744.392822,311.837219 746.790771,313.886292 
	C745.523071,314.179962 743.419495,315.378479 742.233276,314.774719 
	C740.471497,313.877991 738.394775,311.832550 738.160583,310.051392 
	C737.580750,305.641357 737.970215,301.103912 737.970215,296.471741 
	C736.423645,296.138306 735.088379,295.850403 733.753113,295.562531 
	C733.650208,295.188843 733.547363,294.815125 733.444458,294.441437 
	C734.788635,293.789398 736.132812,293.137360 737.355225,292.544373 
	C737.921936,290.845001 738.506897,289.090912 739.091797,287.336853 
	C739.628113,287.483398 740.164429,287.629913 740.700745,287.776459 
	C740.863831,289.367188 741.026855,290.957886 741.189087,292.552032 
	C743.149292,293.043091 745.110352,293.530762 747.071411,294.018433 
	C747.025085,294.560303 746.978760,295.102203 746.932495,295.644073 
	C745.441101,295.775330 743.949768,295.906555 742.004517,296.077606 
z"/>
<path fill="#161616" opacity="1.000000" stroke="none" 
	d="
M721.020020,300.123322 
	C721.020020,305.034485 721.020020,309.464172 721.020020,313.893860 
	C720.649963,314.066742 720.279846,314.239594 719.909790,314.412476 
	C719.261047,313.650482 718.192932,312.968201 718.030518,312.113770 
	C716.818420,305.736633 718.069824,294.679382 720.683411,292.703339 
	C720.809387,295.299530 720.914734,297.470673 721.020020,300.123322 
z"/>
<path fill="#1D1D1D" opacity="1.000000" stroke="none" 
	d="
M519.067078,305.940918 
	C519.773071,301.362701 517.518677,296.726685 521.686279,293.196106 
	C521.686279,300.121704 521.686279,307.047272 521.686279,314.654938 
	C517.403015,312.497375 519.816467,308.959290 519.067078,305.940918 
z"/>
<path fill="#FFFCFC" opacity="1.000000" stroke="none" 
	d="
M660.959595,221.077866 
	C638.371948,220.709549 620.982178,205.783966 618.268921,184.839584 
	C615.487122,163.365173 628.572083,143.241272 649.371277,138.095764 
	C665.904358,134.005661 680.534180,138.165939 691.884949,151.123260 
	C703.490906,164.371826 706.036438,179.737701 698.943054,195.772949 
	C691.895874,211.703690 679.160339,220.392212 660.959595,221.077866 
z"/>
<path fill="#F3F3F3" opacity="1.000000" stroke="none" 
	d="
M642.483154,307.213074 
	C642.054626,308.350739 641.576904,309.617310 640.816895,309.818665 
	C638.108521,310.536224 635.210999,311.519684 632.574219,311.128204 
	C631.182190,310.921570 628.966492,307.815582 629.255920,306.481445 
	C629.867676,303.661896 631.881042,301.146393 633.725281,297.761353 
	C637.335938,301.587799 639.820251,304.220581 642.483154,307.213074 
z"/>
<path fill="#E8E8E8" opacity="1.000000" stroke="none" 
	d="
M632.720825,287.612488 
	C634.900879,286.624725 636.895081,285.598267 638.925903,285.519775 
	C639.698242,285.489929 641.505188,288.115936 641.206421,288.710907 
	C639.989685,291.133942 638.139709,293.238983 636.523132,295.461243 
	C635.887085,295.311646 635.250977,295.162048 634.614929,295.012482 
	C633.926453,292.658783 633.237976,290.305084 632.720825,287.612488 
z"/>
<path fill="#F4F4F4" opacity="1.000000" stroke="none" 
	d="
M421.954315,285.899902 
	C424.762817,285.903046 427.111084,285.753601 429.401123,286.051636 
	C436.172180,286.932678 440.328827,291.887726 440.238373,298.718140 
	C440.151459,305.282196 436.005341,310.135895 429.459442,310.929840 
	C426.717285,311.262451 423.901184,310.985168 420.008972,310.985168 
	C420.505249,302.467468 420.986359,294.209656 421.954315,285.899902 
z"/>
<path fill="#F4F4F4" opacity="1.000000" stroke="none" 
	d="
M541.031921,298.401733 
	C545.597839,294.439606 548.985291,294.129456 552.189819,297.058197 
	C555.204041,299.812958 555.759766,305.104889 553.186096,308.363770 
	C550.567688,311.679230 547.146851,312.268463 543.458984,310.375946 
	C539.593689,308.392334 538.685120,304.021942 541.031921,298.401733 
z"/>
<path fill="#F4F4F4" opacity="1.000000" stroke="none" 
	d="
M472.174805,296.927612 
	C473.065247,298.650665 473.670441,300.095734 474.432922,301.916443 
	C469.510071,301.916443 465.268036,301.916443 461.005249,301.916443 
	C461.948120,295.596924 465.935699,293.714172 472.174805,296.927612 
z"/>
<path fill="#F0F0F0" opacity="1.000000" stroke="none" 
	d="
M837.656982,299.752258 
	C837.011597,300.799194 836.271240,301.964508 835.467590,302.010010 
	C831.867615,302.213776 828.249634,302.098724 824.353760,302.098724 
	C824.793579,298.022125 827.211731,295.373657 830.525452,295.386292 
	C832.866272,295.395233 835.197449,297.941528 837.656982,299.752258 
z"/>
</svg>